<svg xmlns="http://www.w3.org/2000/svg" width="162" height="56" viewBox="0 0 162 56" fill="none"><path d="M22.5607 28.1534V15.3507C22.5607 10.9978 20.5403 9.0918 15.8587 9.0918H3.0625V13.8576H4.66612V28.1552H22.5607V28.1534ZM10.7584 13.8558H14.0621C15.7294 13.8558 16.4666 14.651 16.4666 16.429V23.3875H10.7584V13.8558Z" fill="white"></path><path d="M32.4385 20.6232V9.0918H24.1328V13.8576H26.1842V20.6232H32.4385Z" fill="white"></path><path d="M34.5781 9.0918V20.5926C34.5781 25.9625 37.6889 28.312 44.2963 28.312C50.9037 28.312 54.0454 25.9607 54.0454 20.5926V9.0918H44.1361V13.8576H47.793V19.6405C47.793 22.3723 46.5425 23.548 44.2981 23.548C42.0538 23.548 40.8342 22.3723 40.8342 19.6405V9.0918H34.5799H34.5781Z" fill="white"></path><path d="M70.0089 28.1532V16.5569C70.0089 11.3456 67.6044 9.08984 62.12 9.08984H55.5781V13.8557H60.966C62.9227 13.8557 63.7564 14.9358 63.7564 17.4458V28.1532H70.0107H70.0089Z" fill="white"></path><path d="M82.2338 23.3875H80.47V28.1534H83.5171C88.1987 28.1534 90.5723 25.93 90.5723 21.5771V9.0918H72.3555V13.8576H84.318V21.3553C84.318 22.7528 83.8375 23.3893 82.2338 23.3893V23.3875Z" fill="white"></path><path d="M100.853 28.1534V9.0918H92.2891V13.8576H94.5989V28.1534H100.853Z" fill="white"></path><path d="M112.533 23.3874V28.1532H122.411V16.4613C122.411 10.7109 119.845 8.93115 115.549 8.93115C112.535 8.93115 110.835 9.75702 109.455 12.2671L108.525 9.08983H102.336L105.767 18.9713L102.496 28.1532H108.814L113.336 15.4443C113.882 13.9188 114.459 13.697 115.036 13.697C115.837 13.697 116.35 14.0468 116.35 15.731V23.3874H112.533Z" fill="white"></path><path d="M137.806 28.1534V13.8576H139.859V9.0918H123.855V13.8576H131.553V28.1534H137.806Z" fill="white"></path><path d="M147.817 16.748H141.562V28.1532H147.817V16.748Z" fill="white"></path><path d="M159.139 28.1534V9.0918H141.562V13.8576H152.884V28.1534H159.139Z" fill="white"></path><path d="M160.129 5.80809L162 0H0L1.87119 5.80809H160.129Z" fill="white"></path><path d="M78.61 31.4621V17.0654H72.3576V31.4621H1.87119L0 37.272H162L160.129 31.4621H78.61Z" fill="white"></path><path d="M16.4851 42.9157V55.9997H13.742V44.1527H12.7227V42.061H15.6951C16.2575 42.061 16.4869 42.3405 16.4869 42.914L16.4851 42.9157Z" fill="white"></path><path d="M23.3966 44.1529H18.2617V40.3193H20.8828V42.0612H26.2634V44.1529L22.6576 52.5161H19.8089L23.3966 44.1529Z" fill="white"></path><path d="M29.243 52.516V44.1527H27.8359V42.061H31.9861V52.5142H29.243V52.516Z" fill="white"></path><path d="M37.7008 52.516C37.4187 51.8722 37.2785 51.279 37.1729 50.5829C36.7688 51.8903 35.9243 52.516 34.4644 52.516H33.6562V50.1123H34.3243C36.048 50.1123 36.6451 49.4505 36.6451 47.4634V45.1986C36.6451 44.4322 36.4157 44.1527 35.7841 44.1527H34.3589V42.061H36.6269C38.6309 42.061 39.3881 42.8797 39.3881 45.076V48.6301C39.3881 49.7625 39.5811 50.9652 40.1089 52.516H37.699H37.7008Z" fill="white"></path><path d="M51.2616 46.3492C51.2616 44.8165 50.7174 44.1547 49.3977 44.1547H46.2852V42.063H49.891C52.7579 42.063 54.0247 43.2477 54.0247 45.9831V52.5161H51.2635V46.3492H51.2616Z" fill="white"></path><path d="M57.0098 48.1957V44.1547H55.7266V42.063H59.7547V48.1957H57.0116H57.0098Z" fill="white"></path><path d="M69.0605 52.5161L65.8606 47.725C65.5257 47.2201 65.2799 46.9406 64.8413 46.9406C64.2788 46.9406 64.1022 47.3932 64.1022 48.1253V50.529H65.8442V52.5161H61.5703V47.8476C61.5703 46.5061 62.1164 45.6874 63.1703 45.4079C63.487 45.3214 63.8383 45.2691 64.1896 45.2871L61.8852 42.063H64.6993L67.9174 46.8541C68.2524 47.359 68.4799 47.6385 68.9204 47.6385C69.501 47.6385 69.6758 47.1859 69.6758 46.4538V44.0501H67.9338V42.063H72.2077V46.7315C72.2077 48.073 71.6453 48.8917 70.6077 49.1712C70.291 49.2758 69.9397 49.31 69.5702 49.2938L71.891 52.5161H69.0605Z" fill="white"></path><path d="M75.1973 48.1957V44.1547H73.9141V42.063H77.9422V48.1957H75.1991H75.1973Z" fill="white"></path><path d="M95.6344 42.0632V52.5163H92.8913V44.1531H89.1271V51.7139C89.1271 52.2711 88.8632 52.5145 88.2661 52.5145H84.5547V50.4228H86.384V44.1513H85.1008V42.0596H95.6344V42.0632Z" fill="white"></path><path d="M98.95 52.516V44.1527H97.543V42.061H101.693V52.5142H98.95V52.516Z" fill="white"></path><path d="M116.588 48.7347C116.588 51.2429 115.163 52.516 112.261 52.516H108.269C105.368 52.516 103.961 51.2447 103.961 48.7347V42.061H106.635V48.4732C106.635 49.7787 107.268 50.4243 108.657 50.4243H111.875C113.264 50.4243 113.916 49.7805 113.916 48.4732V42.061H116.59V48.7347H116.588ZM108.937 42.061H111.61V48.6301H109.587C109.147 48.6301 108.937 48.4029 108.937 47.916V42.061Z" fill="white"></path><path d="M126.012 52.5161L122.812 47.725C122.477 47.2201 122.231 46.9406 121.792 46.9406C121.23 46.9406 121.053 47.3932 121.053 48.1253V50.529H122.793V52.5161H118.52V47.8476C118.52 46.5061 119.064 45.6874 120.12 45.4079C120.436 45.3214 120.788 45.2691 121.139 45.2871L118.834 42.063H121.648L124.867 46.8541C125.202 47.359 125.429 47.6385 125.87 47.6385C126.45 47.6385 126.625 47.1859 126.625 46.4538V44.0501H124.883V42.063H129.157V46.7315C129.157 48.073 128.594 48.8917 127.557 49.1712C127.24 49.2758 126.889 49.31 126.519 49.2938L128.84 52.5161H126.01H126.012Z" fill="white"></path><path d="M135.797 46.3492C135.797 44.8165 135.253 44.1547 133.933 44.1547H130.82V42.063H134.426C137.293 42.063 138.56 43.2477 138.56 45.9831V52.5161H135.799V46.3492H135.797Z" fill="white"></path><path d="M149.593 50.4243V52.516H140.43V50.4243H145.53V45.6692C145.53 44.5368 145.142 44.1527 144.088 44.1527H140.43V42.061H144.669C147.325 42.061 148.275 42.95 148.275 45.4763V50.4243H149.595H149.593Z" fill="white"></path></svg>