<svg width="53" height="24" viewBox="0 0 53 24" fill="none" xmlns="http://www.w3.org/2000/svg">
<path d="M20.8991 18V11.568C20.8991 10.9493 20.7498 10.4907 20.4511 10.192C20.1631 9.88267 19.7258 9.728 19.1391 9.728H15.8431L16.0191 8.512H19.2351C20.2698 8.512 21.0485 8.768 21.5711 9.28C22.1045 9.78133 22.3711 10.528 22.3711 11.52V18H20.8991ZM31.8821 18V11.568C31.8821 10.9493 31.7328 10.4907 31.4341 10.192C31.1461 9.88267 30.7035 9.728 30.1061 9.728H25.9621V8.512H30.2181C31.2528 8.512 32.0315 8.768 32.5541 9.28C33.0875 9.78133 33.3541 10.528 33.3541 11.52V18H31.8821ZM24.1381 18L24.3141 16.784H24.8901C25.1355 16.784 25.3328 16.736 25.4821 16.64C25.6421 16.5333 25.7595 16.3787 25.8341 16.176C25.9195 15.9733 25.9621 15.712 25.9621 15.392V8.832H27.4341V15.472C27.4341 16.2933 27.2368 16.9227 26.8421 17.36C26.4475 17.7867 25.8768 18 25.1301 18H24.1381ZM24.4581 9.728L24.6341 8.512H26.6661V9.728H24.4581ZM42.3873 18C41.9179 17.2 41.4379 16.4267 40.9473 15.68C40.4566 14.9333 39.9659 14.2293 39.4753 13.568C38.9953 12.896 38.5206 12.272 38.0513 11.696C37.7846 11.3653 37.5233 11.0453 37.2673 10.736C37.0113 10.416 36.7713 10.1173 36.5473 9.84C36.3339 9.56267 36.1313 9.312 35.9393 9.088C35.7579 8.864 35.5979 8.672 35.4593 8.512H37.2353C37.4379 8.74667 37.6513 9.008 37.8753 9.296C38.0993 9.584 38.3446 9.89867 38.6113 10.24C38.8779 10.5707 39.1713 10.9387 39.4913 11.344C39.9499 11.9733 40.4406 12.6507 40.9633 13.376C41.4859 14.1013 42.0139 14.8533 42.5473 15.632C43.0806 16.4107 43.5873 17.2 44.0673 18H42.3873ZM35.1073 18L35.4913 15.344C35.5766 14.7253 35.7099 14.16 35.8913 13.648C36.0833 13.1253 36.3606 12.672 36.7233 12.288C37.0859 11.8933 37.5713 11.5733 38.1793 11.328L38.6593 12.288C38.2753 12.4693 37.9713 12.7147 37.7473 13.024C37.5233 13.3227 37.3526 13.6747 37.2353 14.08C37.1179 14.4747 37.0219 14.912 36.9473 15.392L36.5633 18H35.1073ZM40.9953 14.064L40.5153 13.104C40.9206 12.912 41.2513 12.6667 41.5073 12.368C41.7633 12.0693 41.9553 11.7227 42.0833 11.328C42.2219 10.9333 42.3126 10.496 42.3553 10.016L42.4993 8.512H43.9713L43.8273 10.064C43.7739 10.6827 43.6406 11.248 43.4273 11.76C43.2139 12.272 42.9046 12.72 42.4993 13.104C42.1046 13.488 41.6033 13.808 40.9953 14.064ZM46.6566 8.512H52.4326L52.2726 9.44L49.4086 18H47.8886L50.6886 9.728H45.1846V6.016L46.6566 5.84V8.512Z" fill="#343C47"/>
<path d="M6 19L0 13L6 7L7.4 8.4L3.8 12V14L7.4 17.6L6 19Z" fill="#343C47"/>
</svg>
